<svg width="24" height="24" viewBox="0 0 24 24" fill="none" xmlns="http://www.w3.org/2000/svg">
<path fill-rule="evenodd" clip-rule="evenodd" d="M7.60063 2.18176H16.3991C19.3873 2.18176 21.8183 4.61276 21.8182 7.60069V16.3992C21.8182 19.3871 19.3873 21.8181 16.3991 21.8181H7.60063C4.6127 21.8181 2.18182 19.3872 2.18182 16.3992V7.60069C2.18182 4.61276 4.6127 2.18176 7.60063 2.18176ZM16.3993 20.0759C18.4266 20.0759 20.0761 18.4266 20.0761 16.3992H20.076V7.60069C20.076 5.57343 18.4265 3.924 16.3991 3.924H7.60063C5.57337 3.924 3.92406 5.57343 3.92406 7.60069V16.3992C3.92406 18.4266 5.57337 20.076 7.60063 20.0759H16.3993ZM6.85715 12.0001C6.85715 9.16418 9.16419 6.85709 12 6.85709C14.8358 6.85709 17.1429 9.16418 17.1429 12.0001C17.1429 14.8358 14.8358 17.1428 12 17.1428C9.16419 17.1428 6.85715 14.8358 6.85715 12.0001ZM8.62799 11.9999C8.62799 13.8592 10.1407 15.3718 12 15.3718C13.8593 15.3718 15.372 13.8592 15.372 11.9999C15.372 10.1405 13.8594 8.62784 12 8.62784C10.1406 8.62784 8.62799 10.1405 8.62799 11.9999Z" fill="white"/>
<mask id="mask0_1_445" style="mask-type:luminance" maskUnits="userSpaceOnUse" x="2" y="2" width="20" height="20">
<path fill-rule="evenodd" clip-rule="evenodd" d="M7.60063 2.18176H16.3991C19.3873 2.18176 21.8183 4.61276 21.8182 7.60069V16.3992C21.8182 19.3871 19.3873 21.8181 16.3991 21.8181H7.60063C4.6127 21.8181 2.18182 19.3872 2.18182 16.3992V7.60069C2.18182 4.61276 4.6127 2.18176 7.60063 2.18176ZM16.3993 20.0759C18.4266 20.0759 20.0761 18.4266 20.0761 16.3992H20.076V7.60069C20.076 5.57343 18.4265 3.924 16.3991 3.924H7.60063C5.57337 3.924 3.92406 5.57343 3.92406 7.60069V16.3992C3.92406 18.4266 5.57337 20.076 7.60063 20.0759H16.3993ZM6.85715 12.0001C6.85715 9.16418 9.16419 6.85709 12 6.85709C14.8358 6.85709 17.1429 9.16418 17.1429 12.0001C17.1429 14.8358 14.8358 17.1428 12 17.1428C9.16419 17.1428 6.85715 14.8358 6.85715 12.0001ZM8.62799 11.9999C8.62799 13.8592 10.1407 15.3718 12 15.3718C13.8593 15.3718 15.372 13.8592 15.372 11.9999C15.372 10.1405 13.8594 8.62784 12 8.62784C10.1406 8.62784 8.62799 10.1405 8.62799 11.9999Z" fill="white"/>
</mask>
<g mask="url(#mask0_1_445)">
</g>
</svg>
