<?xml version="1.0" standalone="no"?>
<!DOCTYPE svg PUBLIC "-//W3C//DTD SVG 20010904//EN"
 "http://www.w3.org/TR/2001/REC-SVG-20010904/DTD/svg10.dtd">
<svg version="1.0" xmlns="http://www.w3.org/2000/svg"
 width="552.000000pt" height="552.000000pt" viewBox="0 0 552.000000 552.000000"
 preserveAspectRatio="xMidYMid meet">
<metadata>
Created by potrace 1.14, written by Peter Selinger 2001-2017
</metadata>
<g transform="translate(0.000000,552.000000) scale(0.100000,-0.100000)"
fill="#000000" stroke="none">
<path d="M1926 5023 c-1 -1 -53 -3 -116 -4 -121 -1 -285 -19 -307 -32 -4 -3
-26 -8 -47 -11 -22 -4 -46 -12 -54 -19 -8 -6 -16 -11 -16 -9 -2 7 -61 -11 -82
-25 -11 -7 -23 -11 -26 -8 -3 3 -11 -1 -18 -10 -7 -8 -19 -15 -27 -15 -8 0
-28 -9 -44 -21 -16 -11 -29 -18 -29 -14 0 3 -33 -17 -74 -44 -269 -182 -440
-402 -537 -694 -17 -49 -33 -100 -35 -111 -2 -12 -6 -32 -9 -46 -12 -59 -17
-99 -20 -158 -1 -35 -5 -66 -8 -69 -3 -3 -2 -16 3 -29 6 -14 6 -24 0 -24 -5 0
-5 -12 0 -29 4 -16 6 -32 3 -35 -8 -8 -9 -75 -1 -70 5 3 4 -6 -1 -19 -5 -13
-6 -29 -1 -36 4 -7 4 -28 0 -46 -4 -18 -4 -39 1 -46 4 -7 5 -18 1 -23 -9 -15
-10 -46 -1 -46 4 0 4 -13 -1 -28 -4 -16 -4 -36 2 -45 5 -10 5 -17 1 -17 -4 0
-8 -15 -8 -34 0 -19 4 -32 9 -29 5 4 6 1 2 -6 -10 -16 -13 -130 -4 -124 5 2 4
-7 -1 -20 -6 -14 -7 -28 -4 -31 8 -7 7 -112 -1 -125 -4 -5 -2 -12 3 -15 6 -4
6 -18 1 -34 -4 -16 -4 -36 2 -45 5 -10 5 -17 1 -17 -4 0 -8 -38 -8 -85 0 -47
3 -85 7 -85 4 0 3 -13 -2 -30 -5 -18 -5 -32 1 -36 5 -3 7 -10 3 -15 -9 -15
-11 -69 -3 -75 4 -2 4 -18 -1 -34 -5 -17 -5 -30 0 -30 5 0 5 -12 1 -27 -4 -16
-4 -40 0 -56 4 -15 4 -27 0 -27 -6 0 -7 -38 -1 -65 1 -5 1 -12 0 -15 -6 -16
-5 -50 1 -50 5 0 4 -11 -1 -24 -5 -13 -6 -26 -3 -29 3 -3 7 -25 9 -49 2 -24 6
-61 9 -83 4 -22 8 -55 11 -73 2 -18 18 -75 35 -127 16 -52 29 -96 27 -98 -2
-2 5 -11 15 -21 9 -10 17 -26 17 -37 0 -10 4 -19 10 -19 5 0 9 -4 7 -8 -2 -8
33 -82 44 -92 3 -3 16 -23 29 -45 13 -22 34 -53 47 -69 13 -16 22 -35 19 -43
-3 -8 -1 -11 4 -8 5 3 26 -13 47 -37 21 -23 62 -65 92 -92 30 -28 62 -58 71
-67 9 -8 23 -19 31 -22 8 -4 37 -23 64 -42 78 -55 82 -58 90 -56 4 2 11 -1 14
-6 6 -8 116 -63 126 -63 3 0 19 -7 35 -15 17 -9 30 -13 30 -9 0 4 7 0 17 -7 9
-8 17 -13 17 -11 1 2 8 1 16 -1 34 -11 154 -37 195 -43 97 -14 454 -24 461
-12 3 4 11 5 19 2 23 -9 296 -10 302 -1 2 4 9 4 15 1 6 -4 117 -7 245 -6 181
1 232 -1 228 -11 -4 -7 0 -4 8 5 8 10 17 15 20 12 9 -9 278 -11 283 -2 3 4 11
5 19 2 22 -9 175 -10 175 -2 0 4 11 3 24 -2 13 -5 26 -7 29 -4 2 3 35 7 72 10
37 2 70 6 74 8 3 2 25 7 47 10 55 9 72 12 126 29 26 8 49 12 52 9 4 -3 6 0 6
7 0 6 6 11 13 10 6 -2 28 4 47 13 90 39 136 62 150 74 8 7 22 14 30 16 8 2 17
5 20 8 3 3 28 21 55 40 28 19 52 38 53 42 2 4 8 8 13 8 5 0 36 26 70 58 34 31
68 56 75 56 7 -1 10 4 8 11 -3 7 6 22 20 33 14 11 26 23 26 26 0 6 68 98 79
106 3 3 12 16 19 30 14 29 35 63 43 70 8 7 22 44 21 53 -1 4 3 7 8 7 6 0 10 9
10 19 0 11 4 21 8 23 18 7 111 308 95 308 -3 0 -1 6 4 13 5 6 11 32 12 57 2
25 8 48 14 52 9 5 9 8 1 8 -6 0 -10 12 -8 27 6 54 6 151 0 161 -3 6 -2 13 3
17 6 3 8 11 5 19 -8 20 -10 146 -3 146 4 0 3 15 -1 34 -4 19 -4 40 1 47 4 7 5
18 2 23 -10 15 -10 57 0 63 4 2 3 11 -4 19 -8 10 -8 14 0 14 7 0 8 8 1 25 -5
13 -6 26 -2 29 4 2 5 41 2 85 -3 45 -1 81 4 81 5 0 4 6 -3 13 -7 10 -7 17 0
24 8 8 8 13 0 17 -8 5 -8 13 -1 27 8 14 7 19 -2 19 -8 0 -9 3 -2 10 6 6 8 31
4 60 -4 28 -3 50 1 50 5 0 6 6 3 14 -9 24 -10 130 -2 149 5 9 5 17 1 17 -4 0
-7 19 -5 42 4 83 3 228 -3 237 -3 5 -1 12 4 15 8 5 1 61 -9 76 -2 3 2 15 9 28
8 15 8 22 1 22 -7 0 -8 6 0 19 7 14 7 22 0 26 -8 5 -7 11 1 21 6 8 8 14 3 14
-5 0 -9 30 -10 68 -1 86 -7 146 -15 152 -4 3 -9 21 -11 40 -3 19 -18 76 -34
125 -15 50 -28 96 -27 102 0 7 -3 10 -8 7 -5 -3 -9 4 -9 15 0 12 -4 21 -8 21
-5 0 -9 6 -9 13 0 6 -11 31 -26 53 -14 23 -23 45 -20 48 4 3 2 6 -4 6 -5 0
-15 12 -22 26 -6 15 -27 46 -46 69 -19 23 -35 45 -35 49 0 4 -17 24 -37 45
-21 21 -50 51 -64 67 -38 43 -159 148 -159 138 0 -2 -12 6 -27 20 -15 14 -40
30 -55 37 -15 6 -28 15 -28 20 0 5 -4 9 -9 9 -6 0 -47 18 -93 39 -136 64 -196
84 -313 105 -16 3 -41 9 -55 12 -14 4 -115 8 -225 11 -205 4 -1425 10 -1429 6z"/>
<path d="M4750 3439 c0 -5 5 -7 10 -4 6 3 10 8 10 11 0 2 -4 4 -10 4 -5 0 -10
-5 -10 -11z"/>
<path d="M4795 2920 c3 -5 8 -10 11 -10 2 0 4 5 4 10 0 6 -5 10 -11 10 -5 0
-7 -4 -4 -10z"/>
<path d="M4795 2540 c3 -5 8 -10 11 -10 2 0 4 5 4 10 0 6 -5 10 -11 10 -5 0
-7 -4 -4 -10z"/>
<path d="M4713 1415 c0 -8 4 -12 9 -9 5 3 6 10 3 15 -9 13 -12 11 -12 -6z"/>
<path d="M4513 1355 c0 -8 4 -12 9 -9 5 3 6 10 3 15 -9 13 -12 11 -12 -6z"/>
<path d="M2590 801 c0 -6 4 -13 10 -16 6 -3 7 1 4 9 -7 18 -14 21 -14 7z"/>
<path d="M2740 806 c0 -2 8 -10 18 -17 15 -13 16 -12 3 4 -13 16 -21 21 -21
13z"/>
<path d="M1600 780 c-9 -6 -10 -10 -3 -10 6 0 15 5 18 10 8 12 4 12 -15 0z"/>
<path d="M2115 771 c-3 -5 -2 -12 3 -15 5 -3 9 1 9 9 0 17 -3 19 -12 6z"/>
<path d="M2389 763 c-13 -16 -12 -17 4 -4 16 13 21 21 13 21 -2 0 -10 -8 -17
-17z"/>
<path d="M3475 771 c-3 -5 -2 -12 3 -15 5 -3 9 1 9 9 0 17 -3 19 -12 6z"/>
<path d="M3555 771 c-3 -5 -2 -12 3 -15 5 -3 9 1 9 9 0 17 -3 19 -12 6z"/>
<path d="M3356 762 c-3 -5 1 -9 9 -9 8 0 12 4 9 9 -3 4 -7 8 -9 8 -2 0 -6 -4
-9 -8z"/>
</g>
</svg>
